<svg width="495" height="510" viewBox="0 0 495 510" fill="none" xmlns="http://www.w3.org/2000/svg">
<path d="M296.884 153.526V1H315.132V153.526C315.132 201.672 373.329 225.779 407.37 191.737L515.226 83.8778L528.124 96.7763L420.268 204.635C386.227 238.678 410.349 296.876 458.478 296.876H610.984V315.124H458.462C410.317 315.124 386.211 373.322 420.252 407.365L528.108 515.224L515.21 528.122L407.354 420.263C373.312 386.221 315.116 410.344 315.116 458.474V611H296.868V458.474C296.868 410.328 238.671 386.221 204.63 420.263L96.7737 528.122L83.8756 515.224L191.732 407.365C225.773 373.322 201.651 315.124 153.522 315.124H1V296.876H153.522C201.667 296.876 225.773 238.678 191.732 204.635L83.8756 96.7763L96.7738 83.8778L204.646 191.737C238.688 225.779 296.884 201.656 296.884 153.526Z" stroke="#0a0a0a" stroke-width="2"/>
</svg>
