<svg width="143" height="144" viewBox="0 0 143 144" fill="none" xmlns="http://www.w3.org/2000/svg">
<path d="M143 69.6344H107.128C96.0903 69.6344 90.5582 56.2875 98.3652 48.4803L123.732 23.1128L120.388 19.7685L95.021 45.136C87.214 52.9432 73.8674 47.4147 73.8674 36.3728V0.5H69.1364V36.3728C69.1364 47.4109 55.7898 52.9432 47.9828 45.136L22.6122 19.7685L19.268 23.1128L44.6348 48.4803C52.4418 56.2875 46.9134 69.6344 35.8719 69.6344H0V74.3656H35.8719C46.9096 74.3656 52.4418 87.7125 44.6348 95.5197L19.268 120.887L22.6122 124.232L47.979 98.864C55.786 91.0568 69.1326 96.5853 69.1326 107.627V143.5H73.8636V107.627C73.8636 96.5891 87.2102 91.0568 95.0172 98.864L120.384 124.232L123.728 120.887L98.3614 95.5197C90.5545 87.7125 96.0828 74.3656 107.124 74.3656H142.996V69.6344H143Z" fill="#C5ACDA"/>
</svg>
