<svg width="81" height="80" viewBox="0 0 81 80" fill="none" xmlns="http://www.w3.org/2000/svg">
<ellipse cx="40.5" cy="40" rx="40" ry="40" fill="#C5ACDA"/>
<path fill-rule="evenodd" clip-rule="evenodd" d="M23.4444 45.0649C22.8561 46.4782 22.5274 47.9861 22.4741 49.516C22.5553 50.4597 22.8771 51.3667 23.4088 52.1504C24.4092 53.3087 25.6124 54.275 26.9592 55.002L35.658 60.7932C36.7284 61.6451 37.932 62.3145 39.2203 62.7746C40.0568 62.9737 40.9283 62.9737 41.7648 62.7746C43.0617 62.3202 44.275 61.6554 45.3559 60.8068L54.148 55.0122C55.5086 54.2831 56.7254 53.3129 57.7391 52.1488C58.2746 51.3607 58.5961 50.4471 58.6721 49.4974C58.6143 47.955 58.2769 46.4359 57.6763 45.014L49.9869 20.8142C49.8152 20.0304 49.505 19.2836 49.0709 18.6089C48.7546 18.2247 48.3461 17.927 47.8834 17.7438C47.1104 17.5342 46.3062 17.4641 45.5086 17.5369H35.4968C34.6989 17.4643 33.8944 17.5362 33.122 17.7489C32.6582 17.9318 32.2493 18.2309 31.9345 18.6174C31.5023 19.2921 31.1949 20.0391 31.027 20.8226L23.4444 45.0649ZM45.9038 22.6733C46.2615 23.242 46.5148 23.8698 46.6519 24.5274L53.254 46.2133C50.7742 44.9271 48.1125 44.0273 45.361 43.545L41.071 29.0244C41.0446 28.9386 40.9981 28.8604 40.9353 28.7964C40.8724 28.7323 40.7952 28.6842 40.71 28.6561C40.6247 28.628 40.534 28.6208 40.4454 28.635C40.3568 28.6492 40.2729 28.6844 40.2008 28.7377C40.1039 28.8086 40.033 28.9093 39.9989 29.0244L35.7581 43.5399C32.9935 44.0211 30.3194 44.9245 27.8294 46.2184L34.4587 24.5325C34.5944 23.8737 34.8484 23.2449 35.2085 22.6767C35.471 22.3545 35.8106 22.1036 36.1957 21.9473C36.8446 21.7719 37.5197 21.7145 38.1889 21.7777H42.9268C43.5965 21.7144 44.2722 21.7719 44.9216 21.9473C45.3079 22.1041 45.6482 22.3562 45.9106 22.6801L45.9038 22.6733ZM40.7928 48.8189C42.8343 48.9371 44.8588 48.3875 46.5603 47.2531C46.7537 47.862 46.8223 48.5036 46.7619 49.1396C46.7016 49.7756 46.5136 50.3929 46.2091 50.9545C45.5833 52.0183 44.675 52.8879 43.5849 53.4668C42.4416 54.1928 41.4577 54.8239 41.4577 56.4981C41.4563 57.0352 41.5776 57.5655 41.8123 58.0486C41.0413 57.7284 40.3824 57.1869 39.919 56.4925C39.4555 55.7981 39.2083 54.9819 39.2084 54.147V54.0435C39.2084 52.885 39.2084 51.4583 37.5765 51.4583C37.349 51.4582 37.1237 51.5026 36.9133 51.589C36.4898 51.7643 36.153 52.1004 35.9769 52.5236C35.8894 52.7339 35.8439 52.9592 35.8429 53.1869C34.7244 51.9654 34.1235 50.3575 34.1669 48.7018C34.159 47.9852 34.2591 47.2716 34.4638 46.5848C35.1423 47.8689 37.7207 48.8239 40.7928 48.8239V48.8189Z" fill="#0E100F"/>
</svg>
