<svg width="81" height="80" viewBox="0 0 81 80" fill="none" xmlns="http://www.w3.org/2000/svg">
<ellipse cx="40.5" cy="40" rx="40" ry="40" fill="#C5ACDA"/>
<g clip-path="url(#clip0_6_35)">
<mask id="mask0_6_35" style="mask-type:luminance" maskUnits="userSpaceOnUse" x="17" y="17" width="47" height="46">
<path d="M63.3821 17.4673H17.9673V62.8821H63.3821V17.4673Z" fill="white"/>
</mask>
<g mask="url(#mask0_6_35)">
<path d="M39.1876 17.4795C39.0899 17.4884 38.779 17.5195 38.4993 17.5417C32.049 18.1232 26.007 21.6037 22.1802 26.9531C20.0493 29.9275 18.6865 33.3015 18.1715 36.8751C17.9895 38.1227 17.9673 38.4911 17.9673 40.1825C17.9673 41.874 17.9895 42.2424 18.1715 43.4898C19.4056 52.018 25.4743 59.1831 33.7049 61.8378C35.1788 62.3127 36.7325 62.6369 38.4993 62.8322C39.1876 62.9077 42.1619 62.9077 42.8501 62.8322C45.8999 62.4948 48.4836 61.7401 51.0317 60.4394C51.4225 60.2396 51.4978 60.1864 51.4446 60.1419C51.4091 60.1152 49.7444 57.8823 47.7466 55.1832L44.1153 50.2776L39.5649 43.5432C37.061 39.8407 35.0012 36.8131 34.9834 36.8131C34.9657 36.8085 34.9479 39.8008 34.939 43.4542C34.9257 49.8515 34.9213 50.109 34.8414 50.2598C34.7259 50.4774 34.6371 50.5662 34.4507 50.6638C34.3086 50.735 34.1843 50.7482 33.514 50.7482H32.746L32.5418 50.6196C32.4086 50.5352 32.3109 50.4241 32.2443 50.2954L32.1511 50.0956L32.16 41.1946L32.1733 32.2893L32.3109 32.1161C32.382 32.0229 32.5329 31.9031 32.6394 31.8453C32.8214 31.7566 32.8925 31.7477 33.6605 31.7477C34.5661 31.7477 34.7171 31.7832 34.9523 32.0407C35.0189 32.1117 37.4828 35.823 40.4306 40.2935C43.3782 44.7639 47.4092 50.868 49.3892 53.8646L52.9852 59.3118L53.1672 59.192C54.7787 58.1442 56.4834 56.6525 57.8328 55.0988C60.7051 51.8003 62.5563 47.7783 63.1779 43.4898C63.36 42.2424 63.3821 41.874 63.3821 40.1825C63.3821 38.4911 63.36 38.1227 63.1779 36.8751C61.9438 28.3471 55.8751 21.182 47.6446 18.5272C46.1928 18.0566 44.6479 17.7326 42.9167 17.5372C42.4904 17.4928 39.556 17.444 39.1876 17.4795ZM48.4836 31.2149C48.6967 31.3215 48.8698 31.5257 48.9319 31.7388C48.9675 31.8542 48.9763 34.3225 48.9675 39.885L48.9542 47.867L47.5469 45.7095L46.1351 43.5521V37.7497C46.1351 33.9984 46.1529 31.8897 46.1796 31.7876C46.2505 31.539 46.4059 31.3437 46.6189 31.2283C46.801 31.135 46.8676 31.1262 47.5647 31.1262C48.2217 31.1262 48.3371 31.135 48.4836 31.2149Z" fill="#0E100F"/>
</g>
</g>
<defs>
<clipPath id="clip0_6_35">
<rect width="45.4148" height="45.4148" fill="white" transform="translate(17.9673 17.4673)"/>
</clipPath>
</defs>
</svg>
