<svg width="81" height="80" viewBox="0 0 81 80" fill="none" xmlns="http://www.w3.org/2000/svg">
<ellipse cx="40.5" cy="40" rx="40" ry="40" fill="#C5ACDA"/>
<g clip-path="url(#clip0_6_45)">
<path d="M20.0238 34.1405V35.6284H20.0906C20.2236 35.4213 20.3975 35.2102 20.6124 34.9955C20.8269 34.7808 21.09 34.5884 21.401 34.4178C21.7119 34.2482 22.0635 34.1072 22.456 33.9959C22.848 33.885 23.2889 33.8292 23.7774 33.8292C24.5327 33.8292 25.2285 33.9738 25.8653 34.2623C26.5019 34.5516 27.05 34.9477 27.5091 35.4509C27.9679 35.9545 28.3232 36.5468 28.5751 37.2277C28.8268 37.909 28.9527 38.642 28.9527 39.4266C28.9527 40.2113 28.8305 40.948 28.5861 41.6366C28.342 42.3251 27.9935 42.9247 27.5422 43.4355C27.0903 43.9464 26.5428 44.3542 25.8986 44.657C25.2544 44.9605 24.5249 45.1123 23.7108 45.1123C22.9555 45.1123 22.2633 44.9567 21.6341 44.6461C21.0044 44.335 20.5198 43.9133 20.1793 43.3797H20.1351V50.1319H17.4697V34.1405H20.0238ZM26.243 39.4265C26.243 39.0118 26.1799 38.6008 26.0541 38.1936C25.928 37.7866 25.7394 37.4201 25.4877 37.0941C25.2358 36.769 24.9176 36.5059 24.5326 36.3057C24.1475 36.1059 23.696 36.006 23.1778 36.006C22.6891 36.006 22.2521 36.1096 21.8674 36.3171C21.4823 36.5245 21.1527 36.7913 20.879 37.1165C20.6048 37.4424 20.3977 37.8126 20.2571 38.2273C20.1161 38.642 20.0461 39.0568 20.0461 39.4711C20.0461 39.8858 20.1161 40.2967 20.2571 40.7036C20.3977 41.1112 20.6048 41.4775 20.879 41.8034C21.1529 42.129 21.4823 42.392 21.8674 42.5915C22.2521 42.7917 22.6891 42.8912 23.1778 42.8912C23.696 42.8912 24.1475 42.7879 24.5326 42.5805C24.9175 42.3731 25.2358 42.1067 25.4877 41.7807C25.7394 41.4552 25.928 41.085 26.0541 40.6703C26.1799 40.2556 26.243 39.8409 26.243 39.4265Z" fill="#0E100F"/>
<path d="M52.2225 33.631V45.4453C52.2225 46.0819 52.1705 46.6854 52.0669 47.2555C51.9629 47.8255 51.7672 48.3214 51.4783 48.7437C51.1898 49.166 50.7971 49.5024 50.3011 49.7543C49.8047 50.0062 49.1573 50.1317 48.3576 50.1317C48.1356 50.1317 47.9135 50.1169 47.6912 50.0875C47.4693 50.0577 47.2916 50.0279 47.1582 49.9984L47.3805 47.7328C47.499 47.7626 47.6246 47.7847 47.758 47.7996C47.8914 47.8141 48.0095 47.8217 48.1133 47.8217C48.424 47.8217 48.6757 47.7626 48.8684 47.6441C49.0606 47.5252 49.2089 47.3624 49.3129 47.1554C49.4161 46.9479 49.4829 46.7074 49.5127 46.4334C49.5421 46.1593 49.5569 45.8673 49.5569 45.5562V33.631H52.2225Z" fill="#0E100F"/>
<path d="M61.3064 36.9833C61.0692 36.6722 60.7436 36.4023 60.329 36.1727C59.9143 35.9431 59.4628 35.8282 58.9741 35.8282C58.5445 35.8282 58.1525 35.9173 57.7972 36.0949C57.4415 36.2722 57.2642 36.5688 57.2642 36.9833C57.2642 37.3977 57.4601 37.6908 57.8525 37.8604C58.2448 38.0308 58.8189 38.205 59.574 38.3826C59.9736 38.4717 60.377 38.59 60.7844 38.7379C61.1918 38.8858 61.562 39.0821 61.8952 39.3266C62.228 39.5706 62.4983 39.8744 62.7057 40.2372C62.9128 40.6002 63.0168 41.0405 63.0168 41.5588C63.0168 42.2107 62.8944 42.7623 62.6501 43.2136C62.406 43.6653 62.0801 44.0318 61.6727 44.313C61.2653 44.5943 60.7916 44.798 60.2512 44.9238C59.7106 45.0496 59.1521 45.1124 58.5743 45.1124C57.7447 45.1124 56.9381 44.9606 56.1532 44.6572C55.3683 44.3542 54.7168 43.9207 54.1987 43.3583L55.9534 41.7145C56.2496 42.0996 56.6343 42.4179 57.1085 42.6694C57.5823 42.9213 58.1077 43.0469 58.6855 43.0469C58.8777 43.0469 59.074 43.0251 59.2741 42.9805C59.4739 42.9362 59.6589 42.8661 59.8293 42.7697C59.9993 42.6733 60.1362 42.544 60.2402 42.3809C60.3435 42.2177 60.3954 42.0183 60.3954 41.7809C60.3954 41.3365 60.1919 41.0186 59.785 40.826C59.3774 40.6335 58.7664 40.4409 57.9525 40.2486C57.5526 40.1594 57.1638 40.045 56.7861 39.904C56.4086 39.7634 56.0717 39.5785 55.7756 39.3489C55.479 39.1193 55.2426 38.8347 55.0649 38.4935C54.8872 38.1531 54.7981 37.7311 54.7981 37.2275C54.7981 36.6352 54.9202 36.1247 55.1648 35.6953C55.4089 35.2654 55.7313 34.9146 56.1309 34.6398C56.5305 34.3661 56.9822 34.1624 57.4858 34.0294C57.989 33.896 58.5075 33.8292 59.0405 33.8292C59.8101 33.8292 60.5619 33.9626 61.2947 34.2288C62.0275 34.4956 62.6084 34.9032 63.0384 35.4507L61.3064 36.9833Z" fill="#0E100F"/>
<path d="M45.5674 42.5463L47.1548 42.0671L47.4666 43.0263L45.8857 43.5654L46.867 44.957L46.0398 45.5571L45.0067 44.1901L44.0006 45.521L43.1971 44.9092L44.1785 43.5654L42.5854 42.9906L42.8974 42.0306L44.4971 42.5461V40.8914H45.5676L45.5674 42.5463Z" fill="#0E100F"/>
<path d="M40.0843 37.5271C39.8102 36.913 39.4292 36.3945 38.9405 35.9724C38.452 35.5505 37.8781 35.2283 37.2193 35.0064C36.5602 34.7844 35.8457 34.6732 35.076 34.6732C34.7946 34.6732 34.48 34.6884 34.1321 34.7174C33.784 34.7476 33.4843 34.7991 33.2326 34.8733L33.3879 31.4748H39.8069V29.0763H30.856L30.5894 37.6713C30.8259 37.5532 31.0964 37.4421 31.4 37.3381C31.7034 37.2349 32.0143 37.1422 32.3328 37.0609C32.6511 36.9794 32.977 36.9167 33.3102 36.8719C33.6434 36.8276 33.9578 36.8055 34.2541 36.8055C34.6833 36.8055 35.1054 36.8535 35.5201 36.9497C35.9346 37.046 36.3085 37.2164 36.6417 37.4605C36.9749 37.7046 37.2448 38.027 37.4524 38.4266C37.6595 38.8262 37.7633 39.3298 37.7633 39.937C37.7633 40.4109 37.6855 40.8367 37.53 41.2142C37.3747 41.5912 37.1635 41.9064 36.8973 42.1577C36.6305 42.4098 36.3199 42.6022 35.9642 42.7352C35.6088 42.8689 35.2314 42.9354 34.8314 42.9354C34.1209 42.9354 33.5061 42.7463 32.988 42.3689C32.4695 41.9914 32.0996 41.4917 31.8773 40.8696L31.8478 40.8806L29.9189 42.6879C30.3091 43.3242 30.8119 43.8564 31.4333 44.2791C32.3363 44.8932 33.4467 45.2009 34.765 45.2009C35.5497 45.2009 36.2899 45.0748 36.9859 44.8234C37.6816 44.5719 38.2889 44.209 38.8071 43.7347C39.3253 43.2613 39.7362 42.6799 40.04 41.9914C40.3432 41.3029 40.495 40.5221 40.495 39.6481C40.4952 38.8485 40.3583 38.142 40.0843 37.5271Z" fill="#0E100F"/>
</g>
<defs>
<clipPath id="clip0_6_45">
<rect width="46.5088" height="21.208" fill="white" transform="translate(17 29)"/>
</clipPath>
</defs>
</svg>
