<svg width="81" height="80" viewBox="0 0 81 80" fill="none" xmlns="http://www.w3.org/2000/svg">
<ellipse cx="40.5" cy="40" rx="40" ry="40" fill="#C5ACDA"/>
<path d="M63.1334 39.9575C63.1334 36.7837 59.4585 34.1111 53.6121 32.4407C55.1155 26.5943 54.6144 22.0842 51.9417 20.4138C51.2736 20.0798 50.6054 19.9127 49.7702 19.9127C47.2646 19.9127 43.9238 21.7502 40.583 24.9239C37.2423 21.7502 34.0685 19.9127 31.3959 19.9127C30.5607 19.9127 29.8925 20.0798 29.2244 20.4138C26.7188 22.0842 26.2176 26.5943 27.554 32.4407C21.8746 34.1111 18.0327 36.9507 18.0327 39.9575C18.0327 43.1312 21.7076 45.8038 27.554 47.4742C26.2176 53.3206 26.7188 57.9977 29.3914 59.5011C30.0596 59.8352 30.7277 60.0022 31.5629 60.0022C34.0685 60.0022 37.4093 58.1648 40.7501 54.991C44.0909 58.1648 47.2646 60.0022 49.9373 60.0022C50.7724 60.0022 51.4406 59.8352 52.1088 59.5011C54.7814 57.9977 55.2825 53.3206 53.9462 47.4742C59.4585 45.8038 63.1334 42.9642 63.1334 39.9575ZM49.7702 22.0842C50.2713 22.0842 50.6054 22.0842 50.7724 22.4183C52.1088 23.0865 52.6099 25.7591 52.1088 29.2669C51.9417 30.1021 51.7747 31.1044 51.6076 31.9396C49.7702 31.4384 47.9328 31.2714 45.7613 30.9373C44.592 29.2669 43.4227 27.7636 42.0864 26.4273C45.0931 23.5876 47.9328 22.0842 49.7702 22.0842ZM46.7635 43.4653C46.0953 44.6346 45.4272 45.8038 44.592 46.8061C43.2557 46.9731 41.9194 46.9731 40.583 46.9731C39.2467 46.9731 37.9104 46.9731 36.5741 46.8061C35.9059 45.8038 35.2378 44.6346 34.4026 43.4653C33.7344 42.296 33.0663 41.1267 32.5651 39.9575C33.0663 38.7882 33.7344 37.6189 34.4026 36.4496C35.0707 35.2804 35.9059 34.1111 36.5741 32.9418C37.9104 32.7748 39.2467 32.7748 40.583 32.7748C41.9194 32.7748 43.2557 32.7748 44.592 32.9418C45.2602 33.944 46.0953 35.1133 46.7635 36.4496C47.4317 37.6189 48.0998 38.7882 48.6009 39.9575C48.0998 41.1267 47.4317 42.296 46.7635 43.4653ZM49.7702 42.4631C50.2713 43.6323 50.6054 44.8016 50.9395 45.8038C49.7702 46.1379 48.6009 46.305 47.4317 46.472C47.7657 45.8038 48.2669 45.1357 48.6009 44.4675C49.1021 43.9664 49.4361 43.1312 49.7702 42.4631ZM40.583 51.9843C39.7478 51.1491 38.9127 50.1469 38.2445 49.1446C39.0797 49.1446 39.9149 49.1446 40.583 49.1446C41.4182 49.1446 42.2534 49.1446 42.9216 49.1446C42.2534 50.1469 41.4182 51.1491 40.583 51.9843ZM33.7344 46.639C32.5652 46.472 31.3959 46.305 30.2266 45.9709C30.5607 44.8016 31.0618 43.6323 31.3959 42.6301C31.73 43.2983 32.064 43.9664 32.5651 44.6346C33.0663 45.3027 33.4003 45.9709 33.7344 46.639ZM31.3959 37.4519C30.8948 36.2826 30.5607 35.1133 30.0596 33.944C31.2288 33.61 32.3981 33.4429 33.7344 33.2759C33.2333 33.944 32.8992 34.6122 32.3981 35.2804C32.2311 36.1156 31.897 36.7837 31.3959 37.4519ZM40.583 27.9306C41.4182 28.7658 42.0864 29.768 42.9216 30.6032C42.0864 30.6032 41.4182 30.6032 40.583 30.6032C39.7478 30.6032 39.0797 30.6032 38.2445 30.6032C39.0797 29.768 39.9149 28.7658 40.583 27.9306ZM48.6009 35.2804C48.0998 34.6122 47.7657 33.944 47.2646 33.2759C48.6009 33.4429 49.7702 33.61 50.9395 33.944C50.6054 35.1133 50.1043 36.2826 49.6032 37.4519C49.4361 36.7837 49.1021 36.1156 48.6009 35.2804ZM29.2244 29.0999C28.7232 25.5921 29.2244 23.0865 30.5607 22.2513C30.8948 22.0842 31.2288 21.9172 31.5629 21.9172C33.4003 21.9172 36.073 23.4205 39.0797 26.2602C37.9104 27.5965 36.5741 29.0999 35.4048 30.7703C33.4003 30.9373 31.3959 31.2714 29.5584 31.7725C29.3914 30.9373 29.2244 29.9351 29.2244 29.0999ZM25.5495 44.4675C22.3757 43.1312 20.2042 41.2938 20.2042 39.9575C20.2042 38.4541 22.2087 36.7837 25.3825 35.4474C26.2176 35.1133 27.0528 34.7792 28.0551 34.6122C28.5562 36.4496 29.2244 38.2871 30.2266 40.1245C29.3914 41.9619 28.7232 43.7994 28.2221 45.4698C27.2199 45.1357 26.3847 44.8016 25.5495 44.4675ZM30.3936 57.6636C29.0573 56.9955 28.5562 54.3229 29.0573 50.815C29.2244 49.9798 29.3914 48.9776 29.5584 47.9754C31.3959 48.3094 33.2333 48.6435 35.2378 48.8106C36.4071 50.4809 37.7434 51.9843 38.9126 53.3206C35.9059 56.1603 33.2333 57.6636 31.3959 57.6636C31.0618 57.8307 30.7277 57.6636 30.3936 57.6636ZM52.1088 50.815C52.6099 54.3229 52.1088 56.8284 50.7724 57.6636C50.4384 57.8307 50.1043 57.9977 49.7702 57.9977C47.9328 57.9977 45.2602 56.4944 42.2534 53.6547C43.5898 52.3184 44.759 50.815 45.9283 49.1446C47.9328 48.9776 49.9373 48.6435 51.6076 48.3094C51.7747 48.9776 51.9417 49.8128 52.1088 50.815ZM55.7836 44.4675C54.9484 44.8016 54.1132 45.1357 53.111 45.3027C52.6099 43.6323 51.9417 41.7949 51.1065 39.9575C51.9417 38.12 52.6099 36.2826 53.278 34.4452C54.1132 34.7792 55.1155 34.9463 55.9507 35.2804C59.1244 36.6167 61.1289 38.2871 61.1289 39.7904C60.9619 41.2938 58.9574 43.1312 55.7836 44.4675Z" fill="#0E100F"/>
<path d="M40.7502 44.1335C43.0888 44.1335 44.9262 42.296 44.9262 39.9575C44.9262 37.6189 43.0888 35.7815 40.7502 35.7815C38.4117 35.7815 36.5742 37.6189 36.5742 39.9575C36.5742 42.296 38.4117 44.1335 40.7502 44.1335Z" fill="#0E100F"/>
</svg>
