<svg width="81" height="80" viewBox="0 0 81 80" fill="none" xmlns="http://www.w3.org/2000/svg">
<ellipse cx="40.5" cy="40" rx="40" ry="40" fill="#C5ACDA"/>
<path d="M29.75 35.6C31.1833 29.8667 34.7667 27 40.5 27C49.1 27 50.175 33.45 54.475 34.525C57.3417 35.2417 59.85 34.1667 62 31.3C60.5667 37.0333 56.9833 39.9 51.25 39.9C42.65 39.9 41.575 33.45 37.275 32.375C34.4083 31.6583 31.9 32.7333 29.75 35.6ZM19 48.5C20.4333 42.7667 24.0167 39.9 29.75 39.9C38.35 39.9 39.425 46.35 43.725 47.425C46.5917 48.1417 49.1 47.0667 51.25 44.2C49.8167 49.9333 46.2333 52.8 40.5 52.8C31.9 52.8 30.825 46.35 26.525 45.275C23.6583 44.5583 21.15 45.6333 19 48.5Z" fill="#0E100F"/>
</svg>
