<svg width="81" height="80" viewBox="0 0 81 80" fill="none" xmlns="http://www.w3.org/2000/svg">
<ellipse cx="40.5" cy="40" rx="40" ry="40" fill="#C5ACDA"/>
<path d="M50.9988 23.0568H47.3233C46.6212 23.0568 45.9672 23.4136 45.5876 24.0037L40.6747 31.64L35.7619 24.0037C35.3823 23.4136 34.7283 23.0568 34.0263 23.0568H20.7293C19.9895 23.0568 19.3064 23.4526 18.9388 24.0941C18.5712 24.7356 18.5754 25.5247 18.9499 26.1622L38.8953 60.1171C39.2658 60.748 39.9429 61.1354 40.6747 61.1354C41.4066 61.1354 42.0837 60.748 42.4542 60.1171L62.3996 26.1622C62.774 25.5247 62.7784 24.7356 62.4109 24.0941C62.043 23.4526 61.3599 23.0568 60.6202 23.0568H51.0376C51.0246 23.0567 51.0117 23.0567 50.9988 23.0568ZM29.1476 27.1803L40.6748 46.926L52.2018 27.1803H57.0165L40.6747 55.0007L24.3329 27.1803H29.1476Z" fill="#0E100F"/>
</svg>
